<?xml version="1.0" encoding="UTF-8" standalone="no"?>
<!-- Created with Inkscape (http://www.inkscape.org/) -->

<svg
   width="210mm"
   height="297mm"
   viewBox="0 0 210 297"
   version="1.1"
   id="svg5"
   inkscape:version="1.2.2 (732a01da63, 2022-12-09)"
   sodipodi:docname="svgref.svg"
   inkscape:export-filename="..\textures\player\playerbody.png"
   inkscape:export-xdpi="724.4032"
   inkscape:export-ydpi="724.4032"
   xmlns:inkscape="http://www.inkscape.org/namespaces/inkscape"
   xmlns:sodipodi="http://sodipodi.sourceforge.net/DTD/sodipodi-0.dtd"
   xmlns:xlink="http://www.w3.org/1999/xlink"
   xmlns="http://www.w3.org/2000/svg"
   xmlns:svg="http://www.w3.org/2000/svg">
  <sodipodi:namedview
     id="namedview7"
     pagecolor="#ffffff"
     bordercolor="#000000"
     borderopacity="0.25"
     inkscape:showpageshadow="2"
     inkscape:pageopacity="0.0"
     inkscape:pagecheckerboard="0"
     inkscape:deskcolor="#d1d1d1"
     inkscape:document-units="mm"
     showgrid="false"
     inkscape:zoom="2.9825758"
     inkscape:cx="561.59512"
     inkscape:cy="160.59944"
     inkscape:window-width="1920"
     inkscape:window-height="1017"
     inkscape:window-x="-8"
     inkscape:window-y="-8"
     inkscape:window-maximized="1"
     inkscape:current-layer="layer1" />
  <defs
     id="defs2">
    <linearGradient
       inkscape:collect="always"
       id="linearGradient2087">
      <stop
         style="stop-color:#4e3e10;stop-opacity:1;"
         offset="0"
         id="stop2083" />
      <stop
         style="stop-color:#9c6c1e;stop-opacity:1;"
         offset="1"
         id="stop2085" />
    </linearGradient>
    <linearGradient
       inkscape:collect="always"
       xlink:href="#linearGradient2087"
       id="linearGradient2089"
       x1="145.72365"
       y1="42.007206"
       x2="157.95782"
       y2="42.095921"
       gradientUnits="userSpaceOnUse" />
  </defs>
  <g
     id="g14909"
     inkscape:label="package"
     transform="translate(-2.188912e-7)">
    <rect
       style="fill:#83612f;fill-opacity:1;stroke:#000000;stroke-width:0.264999;stroke-dasharray:none;stroke-opacity:1"
       id="rect14857"
       width="33.621788"
       height="18.943619"
       x="25.404522"
       y="160.83257"
       inkscape:export-filename="..\textures\package.png"
       inkscape:export-xdpi="354.12698"
       inkscape:export-ydpi="354.12698" />
    <path
       style="fill:none;fill-opacity:1;stroke:#000000;stroke-width:0.264999;stroke-dasharray:none;stroke-opacity:1"
       d="m 28.729064,161.74212 c -0.04513,0.33067 -0.226657,0.62462 -0.313637,0.94091 -0.07667,0.2788 -0.12093,0.56558 -0.188182,0.84681 -0.132442,0.55386 -0.257056,1.10551 -0.376362,1.66227 -0.04078,0.19031 -0.0505,0.66556 -0.125455,0.81546 -0.01402,0.0281 0,-0.0627 0,-0.0941 0,-0.0836 -0.0038,-0.16736 0,-0.25091 0.01569,-0.34528 0.02996,-0.69093 0.06273,-1.035 0.08051,-0.84533 0.293219,-1.63649 0.53318,-2.44636 0.04654,-0.15706 0.125495,-0.62732 0.25091,-0.75273 0.04102,-0.041 0.37079,0.0522 0.407728,0.0627 0.527865,0.15082 1.079169,0.31264 1.536817,0.62727 0.135964,0.0935 0.555897,0.56434 0.627271,0.72136 0.04348,0.0957 0.03661,0.2087 0.03136,0.31364 -0.04022,0.80432 -0.857592,1.19357 -1.56818,1.22318 -0.130533,0.005 -0.467032,-0.0511 -0.595908,-0.0941 -0.104452,-0.0348 -0.549675,-0.26578 -0.690002,-0.12546 -0.02895,0.0289 0.131887,0.13189 0.156819,0.15682"
       id="path14867" />
    <path
       style="fill:none;fill-opacity:1;stroke:#000000;stroke-width:0.264999;stroke-dasharray:none;stroke-opacity:1"
       d="m 29.795428,165.06666 c 0.01045,0.30318 -0.08483,0.62932 0.03136,0.90954 0.08008,0.19315 0.303942,0.3088 0.501816,0.37637 0.698508,0.23851 1.921219,-0.0394 2.446362,-0.56455 0.309327,-0.30933 0.07629,-0.47733 -0.156819,-0.65863 -0.186753,-0.14526 -0.422055,-0.22198 -0.658635,-0.18819 -0.08816,0.0126 -0.179456,0.13317 -0.345001,0.15682 -0.257336,0.0368 -0.528558,-0.0131 -0.78409,-0.0314 -0.166846,-0.0119 -0.334545,0 -0.501817,0 -0.09409,0 -0.188182,0 -0.282273,0 -0.08364,0 -0.179192,-0.043 -0.250907,0 -0.102214,0.0613 -0.169138,0.17425 -0.219546,0.28227 -0.02653,0.0568 -0.0048,0.12564 0,0.18818 0.02495,0.32448 0.174643,0.44216 0.439089,0.62728 0.34712,0.24298 0.348065,0.25349 0.78409,0.31363 0.677638,0.0935 1.316847,-0.0507 1.881817,-0.43909 0.06092,-0.0419 0.13344,-0.0867 0.156819,-0.15682 0.01471,-0.0441 -0.04852,-0.22665 -0.125455,-0.18818 -0.04229,0.0211 -0.200221,0.66085 -0.219546,0.81545 -0.03332,0.26659 -0.0039,0.49693 0.03136,0.47046 0.02641,-0.0198 0.137202,-0.23814 0.156818,-0.28227 0.02286,-0.0514 0.04182,-0.10455 0.06273,-0.15682 0.05088,-0.12719 0.09409,-0.33218 0.09409,-0.47045"
       id="path14869" />
    <path
       style="fill:none;fill-opacity:1;stroke:#000000;stroke-width:0.264999;stroke-dasharray:none;stroke-opacity:1"
       d="m 34.87633,164.84711 c -0.799891,0.17498 -1.024228,-0.0488 -1.223179,0.65864 -0.05126,0.18227 -0.05699,0.37529 -0.06273,0.56455 -0.0053,0.17484 -0.02482,0.58443 0.188183,0.72136 0.07963,0.0512 0.188121,0.0413 0.28227,0.0314 0.431652,-0.0454 0.430874,-0.20722 0.627274,-0.50182"
       id="path14871" />
    <path
       style="fill:none;fill-opacity:1;stroke:#000000;stroke-width:0.264999;stroke-dasharray:none;stroke-opacity:1"
       d="m 36.632692,164.47075 c -0.167272,0.47045 -0.348763,0.93609 -0.501816,1.41136 -0.273021,0.8478 0.08952,0.10641 -0.25091,0.69 -0.02635,0.0452 -0.07071,0.17221 -0.09409,0.12546 -0.05429,-0.10859 0.127712,-0.35534 0.156818,-0.40773 0.157367,-0.28326 0.277691,-0.56193 0.533181,-0.78409 0.320471,-0.27867 1.090671,-0.3876 1.474091,-0.345 0.04408,0.005 -0.05908,0.0669 -0.09409,0.0941 -0.24402,0.18979 -0.18398,0.10844 -0.533183,0.21954 -0.442854,0.14091 -0.675531,0.20846 -0.972269,0.56455 -0.0095,0.0113 -0.03136,0.0166 -0.03136,0.0314 0,0.10125 0.504706,0.39685 0.564544,0.43908 0.152069,0.10735 0.277477,0.25266 0.439089,0.34501 0.04933,0.0282 0.06787,-0.005 0.09409,-0.0314"
       id="path14873" />
    <path
       style="fill:none;fill-opacity:1;stroke:#000000;stroke-width:0.264999;stroke-dasharray:none;stroke-opacity:1"
       d="m 39.04769,165.19211 c -0.261363,0.30318 -0.608428,0.54986 -0.78409,0.90955 -0.0668,0.13678 0.04714,0.30856 0.125455,0.43909 0.08367,0.13946 0.198466,0.27445 0.345001,0.345 0.504933,0.24311 1.726271,-0.13006 1.693634,-0.81545 -0.01095,-0.23028 -0.32803,-0.3099 -0.470455,-0.37637 -0.06355,-0.0297 -0.119915,-0.078 -0.188182,-0.0941 -0.472898,-0.11127 -0.944957,0.002 -1.379998,0.18818 -0.186513,0.0799 -0.499695,0.19774 -0.43909,0.47045 0.07206,0.32426 0.44172,0.53368 0.689999,0.69001 0.336524,0.21188 0.80899,0.48936 1.22318,0.28227 0.27464,-0.13732 0.601099,-0.50723 0.533183,-0.84682 -0.01479,-0.0739 -0.07917,-0.12867 -0.125455,-0.18818 -0.07036,-0.0905 -0.08712,-0.10019 -0.188182,-0.12545 -0.05685,-0.0142 -0.174922,0.20526 -0.219546,0.31363 -0.05761,0.1399 -0.174162,0.67266 -0.03136,0.81545 0.0141,0.0141 0.294868,0.0627 0.345001,0.0627"
       id="path14875" />
    <path
       style="fill:none;fill-opacity:1;stroke:#000000;stroke-width:0.264999;stroke-dasharray:none;stroke-opacity:1"
       d="m 42.842688,165.44302 c -0.496742,0.49674 -0.985345,0.79802 -0.658638,1.75636 0.07156,0.20992 0.437515,0.1111 0.658638,0.0941 0.570579,-0.0439 1.216134,-0.50363 1.003633,-1.16045 -0.06182,-0.19107 -0.234357,-0.32845 -0.376361,-0.47045 -0.186122,-0.18612 -0.379707,-0.24018 -0.627272,-0.21955 -0.06337,0.005 -0.145642,-0.0159 -0.188182,0.0314 -0.10015,0.11128 -0.120573,0.51014 -0.125455,0.62728 -0.02402,0.57643 0.09662,1.1531 0.156819,1.725 0.01807,0.17154 0.06375,0.41493 -0.125455,0.53318 -0.0452,0.0282 -0.104781,0.0198 -0.156819,0.0314 -0.127595,0.0284 -0.167788,0.0579 -0.313634,0.0314 -0.220845,-0.0402 -0.689481,-0.41224 -0.752727,-0.62728 -0.02655,-0.0903 -0.0104,-0.18876 0,-0.28227 0.01841,-0.16566 0.06965,-0.37251 0.18818,-0.50182 0.228052,-0.24878 0.219546,-0.0569 0.219546,-0.18818"
       id="path14877" />
    <path
       style="fill:none;fill-opacity:1;stroke:#000000;stroke-width:0.264999;stroke-dasharray:none;stroke-opacity:1"
       d="m 45.163595,166.00757 c 0.407725,0.10454 0.805632,0.36678 1.223179,0.31363 0.225412,-0.0287 0.988539,-1.14147 0.78409,-1.38 -0.03469,-0.0405 -0.103921,-0.038 -0.156816,-0.0314 -0.385638,0.0482 -0.512442,0.17793 -0.78409,0.50182 -0.382601,0.45617 -0.583943,0.93155 -0.470456,1.53682 0.09162,0.48863 0.807495,1.05854 1.317273,0.9409 0.211297,-0.0488 0.269259,-0.2157 0.376362,-0.37636"
       id="path14879" />
    <path
       style="fill:#ffffff;fill-opacity:1;stroke:#000000;stroke-width:0.264999;stroke-dasharray:none;stroke-opacity:1"
       d="m 39.769053,173.09574 c 3.484319,0.0406 6.937838,-0.14328 10.412719,-0.28227 0.574918,-0.023 1.150337,-0.034 1.724999,-0.0627 0.167068,-0.008 0.156815,-0.0896 0.156815,0"
       id="path14881" />
    <path
       style="fill:#ffffff;fill-opacity:1;stroke:#000000;stroke-width:0.264999;stroke-dasharray:none;stroke-opacity:1"
       d="m 39.988599,175.76165 c 0.271817,-0.0314 0.542133,-0.0813 0.815453,-0.0941 0.396838,-0.0186 0.794547,0 1.191819,0 3.010905,-0.16727 6.022707,-0.31913 9.032718,-0.50182 0.690706,-0.0419 1.380863,-0.21947 2.069997,-0.15682 0.104011,0.0347 0.06103,0.0314 0.125455,0.0314"
       id="path14883" />
    <rect
       style="fill:#ffffff;fill-opacity:1;stroke:#000000;stroke-width:0.264999;stroke-dasharray:none;stroke-opacity:1"
       id="rect14885"
       width="6.6532254"
       height="6.032258"
       x="29.841349"
       y="171.19815" />
    <g
       id="g14933"
       inkscape:label="enemy"
       inkscape:export-filename="..\textures\enemy.png"
       inkscape:export-xdpi="354.12698"
       inkscape:export-ydpi="354.12698"
       transform="matrix(0.12215272,0,0,0.12215272,27.247686,160.51315)">
      <path
         style="fill:#ffffff;fill-opacity:1;stroke:#000000;stroke-width:0.264999;stroke-dasharray:none;stroke-opacity:1"
         d="m 25.906339,131.78987 c 35.81724,6.52364 36.820876,0.4391 36.820876,0.4391"
         id="path14911"
         inkscape:export-filename="..\textures\enemy.png"
         inkscape:export-xdpi="354.12698"
         inkscape:export-ydpi="354.12698" />
      <path
         style="fill:#ffffff;fill-opacity:1;stroke:#000000;stroke-width:0.264999;stroke-dasharray:none;stroke-opacity:1"
         d="m 25.903226,131.82258 c 18.806451,-2.30645 8.959678,-24.39516 14.016127,-34.685484 5.30462,-10.795372 19.25,-4.967742 19.870968,0.08871 0.724549,5.899894 -6.209675,38.854834 3.903226,34.508064 10.112904,-4.34678 -1.056988,0.50643 -1.056988,0.50643"
         id="path14913"
         sodipodi:nodetypes="csssc"
         inkscape:export-filename="..\textures\enemy.png"
         inkscape:export-xdpi="354.12698"
         inkscape:export-ydpi="354.12698" />
      <path
         style="fill:#ffffff;fill-opacity:1;stroke:#000000;stroke-width:0.264999;stroke-dasharray:none;stroke-opacity:1"
         d="M 48.790322,99.975806 C 46.57258,108.35887 47.77016,111.95161 50.431451,110.75403"
         id="path14915" />
      <path
         style="fill:#000000;fill-opacity:1;stroke:#000000;stroke-width:0.264999;stroke-dasharray:none;stroke-opacity:1"
         d="m 34.685483,112.35081 c 23.064517,3.37096 29.717743,1.59677 29.717743,1.59677 0,0 -1.508064,4.96774 -4.745969,5.58871 -3.237902,0.62097 -22.532258,3.06048 -24.173386,-1.15323 -1.641128,-4.21371 -0.798388,-6.03225 -0.798388,-6.03225 z"
         id="path14917" />
      <path
         style="fill:#ffffff;fill-opacity:1;stroke:#000000;stroke-width:0.264999;stroke-dasharray:none;stroke-opacity:1"
         d="m 38.172717,112.88023 c 0.05907,11.20941 5.330182,0.77588 5.330182,0.77588"
         id="path14919"
         sodipodi:nodetypes="cc" />
      <path
         style="fill:#ffffff;fill-opacity:1;stroke:#000000;stroke-width:0.264999;stroke-dasharray:none;stroke-opacity:1"
         d="m 58.306148,119.64016 c -0.881838,0.60851 -1.603429,-5.65472 -3.694913,0.5207"
         id="path14921"
         sodipodi:nodetypes="cc" />
      <path
         style="fill:#cd1c1c;fill-opacity:1;stroke:none;stroke-width:0.264999;stroke-dasharray:none;stroke-opacity:1"
         d="m 45.602684,117.51944 c 1.599544,7.05681 4.26545,5.67681 5.206359,3.0109 0.940908,-2.66591 -5.206359,-3.0109 -5.206359,-3.0109 z"
         id="path14923"
         sodipodi:nodetypes="csc" />
      <path
         style="fill:none;fill-opacity:1;stroke:#000000;stroke-width:0.264999;stroke-dasharray:none;stroke-opacity:1"
         d="m 40.62903,126.8992 c -2.12903,4.96774 -5.314046,6.46504 -5.314046,6.46504"
         id="path14925"
         sodipodi:nodetypes="cc" />
      <path
         style="fill:none;fill-opacity:1;stroke:#000000;stroke-width:0.264999;stroke-dasharray:none;stroke-opacity:1"
         d="m 54.423385,127.20968 c -2.12903,4.96774 0.943059,6.66398 2.397312,7.39111"
         id="path14927"
         sodipodi:nodetypes="cc" />
      <path
         style="fill:none;fill-opacity:1;stroke:#000000;stroke-width:0.264999;stroke-dasharray:none;stroke-opacity:1"
         d="m 47.021574,127.0215 c -2.12903,4.96774 3.934129,7.76747 3.934129,7.76747"
         id="path14929"
         sodipodi:nodetypes="cc" />
      <path
         style="fill:#ffffff;fill-opacity:1;stroke:none;stroke-width:0.264999;stroke-dasharray:none;stroke-opacity:1"
         d="m 44.532258,121.93145 c -0.04152,0.88835 -0.516601,1.65736 -0.887097,2.43952 -0.252032,0.53206 -0.24175,0.61677 0.04435,1.15322 0.201321,0.37748 0.309372,0.60624 0.709678,0.79839 0.498877,0.23946 0.782603,0.39919 1.286291,0.39919"
         id="path14931" />
    </g>
  </g>
  <g
     inkscape:label="Слой 1"
     inkscape:groupmode="layer"
     id="layer1">
    <g
       id="g13298"
       inkscape:label="player">
      <path
         style="fill:#e5e5e5;fill-opacity:1;stroke:#000000;stroke-width:0.264583;stroke-opacity:1"
         d="m 44.865795,25.614266 c 0,0 -22.532258,35.129033 -21.64516,34.951611 0.887097,-0.177419 40.98387,0.177422 40.98387,0.177422 z"
         id="path300"
         inkscape:export-filename="..\textures\player.png"
         inkscape:export-xdpi="278.71994"
         inkscape:export-ydpi="278.71994" />
      <g
         id="g13281"
         transform="translate(-0.68749999,0.1995968)">
        <g
           id="g13285">
          <path
             style="fill:#e5e5e5;fill-opacity:1;stroke:#000000;stroke-width:0.264583;stroke-opacity:1"
             d="m 36.00542,42.027234 c 0.292854,-0.115554 0.498515,0.08308 0.752727,0.125455 0.0825,0.01376 0.168113,-0.01183 0.250909,0 0.1972,0.02817 0.169961,0.114326 0.376362,0.06273 0.02869,-0.0072 0.03404,-0.05556 0.06273,-0.06273 0.06085,-0.01521 0.126674,0.0123 0.188182,0 0.164679,-0.03294 0.2462,-0.17653 0.376364,-0.25091 0.251048,-0.143457 0.555932,-0.246602 0.815454,-0.376365 0.151995,-0.076 0.885971,-0.321423 0.940909,-0.376361 0.358817,-0.35882 -0.343641,0.112365 0.250907,-0.125455 0.05491,-0.02196 0.07474,-0.09503 0.125455,-0.125455 0.206819,-0.124092 0.581204,-0.06273 0.815453,-0.06273 0.05128,0 0.394756,-0.04433 0.439092,0 0.01479,0.01479 -0.01159,0.04533 0,0.06273 0.09998,0.149968 0.145283,0.07932 0.18818,0.25091 0.09403,0.376094 0.105243,1.588391 -0.18818,1.881817 -0.03766,0.03765 -0.138763,0.05133 -0.188182,0.125452 -0.02593,0.0389 -0.02967,0.09239 -0.06273,0.125455 -0.159544,0.159543 -0.919562,0.07307 -1.129091,0.125455 -0.435155,0.108788 -0.921928,0.06273 -1.379998,0.06273 -0.316193,0 -1.136756,0.07649 -1.442725,0 -0.133906,-0.03348 -0.261951,-0.130974 -0.376365,-0.188182 -0.03385,-0.01693 -0.276553,-0.08837 -0.313634,-0.125455 -0.01479,-0.01479 0.0093,-0.04402 0,-0.06273 -0.13053,-0.261056 0.0043,0.06706 -0.125455,-0.06273 -0.05389,-0.05389 -0.111041,-0.255974 -0.125455,-0.313637 -0.108651,-0.434605 -0.25091,-0.147135 -0.25091,-0.689999 z"
             id="path2494" />
          <path
             style="fill:#000000;fill-opacity:1;stroke:#000000;stroke-width:0.0148175;stroke-opacity:1"
             d="m 154.10891,163.33219 c 0,-0.004 0.0132,-0.034 0.0294,-0.0657 0.0385,-0.0755 0.14409,-0.17334 0.23299,-0.21596 0.12782,-0.0613 0.0303,-0.0418 -0.45503,0.0907 -0.25058,0.0684 -0.39069,0.0472 -0.73698,-0.11176 -0.10374,-0.0476 -0.22251,-0.0886 -0.3181,-0.10987 l -0.15255,-0.0339 -0.0247,-0.0803 c -0.0136,-0.0441 -0.0443,-0.16391 -0.0683,-0.26618 -0.0356,-0.15155 -0.0691,-0.24063 -0.18096,-0.48157 -0.30243,-0.65112 -0.34127,-0.75051 -0.40357,-1.03281 -0.032,-0.14521 -0.0333,-0.17595 -0.0289,-0.70161 0.005,-0.60219 0.002,-0.63149 -0.0817,-0.91718 -0.0515,-0.17496 -0.0524,-0.18208 -0.052,-0.44452 2.1e-4,-0.14669 0.008,-0.35006 0.0164,-0.45193 0.0362,-0.42028 0.0465,-0.72944 0.0313,-0.94373 -0.0203,-0.28587 -0.0483,-0.41766 -0.1192,-0.56027 l -0.0589,-0.11856 1.2e-4,-0.1852 c 2.6e-4,-0.39603 0.0928,-0.91762 0.25416,-1.43243 l 0.0612,-0.19521 0.0931,-0.0473 c 0.11849,-0.0601 0.30177,-0.20657 0.42456,-0.33919 l 0.0955,-0.1032 0.0876,0.0231 c 0.0859,0.0226 0.29082,0.0215 0.34878,-0.002 0.019,-0.008 0.0262,0.002 0.0339,0.0467 0.005,0.031 0.0134,0.0748 0.0178,0.0972 l 0.008,0.0407 0.20256,2.8e-4 c 0.11141,1.6e-4 0.31925,0.007 0.46187,0.0142 0.90662,0.0486 0.92188,0.0487 1.43729,0.008 0.26487,-0.0207 0.53833,-0.0376 0.6077,-0.0376 l 0.12613,-1e-5 0.0808,0.12224 c 0.0964,0.14594 0.28946,0.35017 0.43977,0.46529 0.10602,0.0812 0.10977,0.0863 0.14488,0.19747 0.0998,0.3159 0.17934,0.95859 0.21736,1.75619 0.0194,0.40757 0.01,1.60938 -0.0156,1.9559 -0.0906,1.23333 -0.26468,2.11048 -0.52635,2.65233 -0.0433,0.0896 -0.10746,0.20166 -0.14259,0.24893 -0.0589,0.0793 -0.078,0.0927 -0.24545,0.1728 -0.41034,0.19629 -0.60964,0.39846 -0.74816,0.75895 -0.0548,0.14273 -0.0659,0.15215 -0.24218,0.20667 -0.0768,0.0238 -0.14087,0.0275 -0.47046,0.0276 -0.20985,6e-5 -0.38155,-0.003 -0.38155,-0.008 z"
             id="path3301"
             transform="scale(0.26458333)" />
        </g>
      </g>
      <path
         style="fill:#e5e5e5;fill-opacity:1;stroke:#000000;stroke-width:0.264583;stroke-opacity:1"
         d="m 47.479008,42.098067 c 0.292854,-0.115554 0.498515,0.08308 0.752727,0.125455 0.0825,0.01376 0.168113,-0.01183 0.250909,0 0.1972,0.02817 0.169961,0.114326 0.376362,0.06273 0.02869,-0.0072 0.03404,-0.05556 0.06273,-0.06273 0.06085,-0.01521 0.126674,0.0123 0.188182,0 0.164679,-0.03294 0.2462,-0.17653 0.376364,-0.25091 0.251048,-0.143457 0.555932,-0.246602 0.815454,-0.376365 0.151995,-0.076 0.885971,-0.321423 0.940909,-0.376361 0.358817,-0.35882 -0.343641,0.112365 0.250907,-0.125455 0.05491,-0.02196 0.07474,-0.09503 0.125455,-0.125455 0.206819,-0.124092 0.581204,-0.06273 0.815453,-0.06273 0.05128,0 0.394756,-0.04433 0.439092,0 0.01479,0.01479 -0.01159,0.04533 0,0.06273 0.09998,0.149968 0.145283,0.07932 0.18818,0.25091 0.09403,0.376094 0.105243,1.588391 -0.18818,1.881817 -0.03766,0.03765 -0.138763,0.05133 -0.188182,0.125452 -0.02593,0.0389 -0.02967,0.09239 -0.06273,0.125455 -0.159544,0.159543 -0.919562,0.07307 -1.129091,0.125455 -0.435155,0.108788 -0.921928,0.06273 -1.379998,0.06273 -0.316193,0 -1.136756,0.07649 -1.442725,0 -0.133906,-0.03348 -0.261951,-0.130974 -0.376365,-0.188182 -0.03385,-0.01693 -0.276553,-0.08837 -0.313634,-0.125455 -0.01479,-0.01479 0.0093,-0.04402 0,-0.06273 -0.13053,-0.261056 0.0043,0.06706 -0.125455,-0.06273 -0.05389,-0.05389 -0.111041,-0.255974 -0.125455,-0.313637 -0.108651,-0.434605 -0.25091,-0.147135 -0.25091,-0.689999 z"
         id="path2494-6" />
      <path
         style="fill:#000000;fill-opacity:1;stroke:#000000;stroke-width:0.00392046;stroke-opacity:1"
         d="m 52.248237,43.285807 c 0,-0.0011 0.0035,-0.009 0.0078,-0.01738 0.01019,-0.01998 0.03812,-0.04586 0.06164,-0.05714 0.03382,-0.01622 0.008,-0.01106 -0.120394,0.024 -0.0663,0.0181 -0.10337,0.01249 -0.194992,-0.02957 -0.02745,-0.01259 -0.05887,-0.02344 -0.08416,-0.02907 l -0.04036,-0.009 -0.0065,-0.02125 c -0.0036,-0.01167 -0.01172,-0.04337 -0.01807,-0.07043 -0.0094,-0.0401 -0.01828,-0.06367 -0.04788,-0.127416 -0.08002,-0.172275 -0.09029,-0.198572 -0.106777,-0.273264 -0.0085,-0.03842 -0.0088,-0.04655 -0.0076,-0.185634 0.0013,-0.15933 5.29e-4,-0.167082 -0.02162,-0.242671 -0.01363,-0.04629 -0.01387,-0.04818 -0.01376,-0.117612 5.6e-5,-0.03881 0.0021,-0.09262 0.0043,-0.119573 0.0096,-0.1112 0.0123,-0.192998 0.0083,-0.249696 -0.0054,-0.07564 -0.01278,-0.110506 -0.03154,-0.148238 l -0.01558,-0.03137 3.1e-5,-0.049 c 6.9e-5,-0.104783 0.02455,-0.242787 0.06725,-0.378997 l 0.01619,-0.05165 0.02463,-0.01252 c 0.03135,-0.0159 0.07984,-0.05466 0.112332,-0.08974 l 0.02527,-0.0273 0.02318,0.0061 c 0.02273,0.006 0.07695,0.0057 0.09228,-5.29e-4 0.005,-0.0021 0.0069,5.29e-4 0.009,0.01236 0.0013,0.0082 0.0035,0.01979 0.0047,0.02572 l 0.0021,0.01077 0.05359,7.4e-5 c 0.02948,4.2e-5 0.08447,0.0019 0.122203,0.0038 0.239876,0.01286 0.243914,0.01288 0.380283,0.0021 0.07008,-0.0055 0.142433,-0.0099 0.160787,-0.0099 l 0.03337,-2e-6 0.02138,0.03234 c 0.02551,0.03861 0.07659,0.09265 0.116356,0.123108 0.02805,0.02148 0.02904,0.02283 0.03833,0.05225 0.0264,0.08358 0.04745,0.253627 0.05751,0.464658 0.0051,0.107837 0.0026,0.425815 -0.0041,0.517499 -0.02397,0.326318 -0.07003,0.558398 -0.139263,0.701762 -0.01146,0.02371 -0.02843,0.05336 -0.03773,0.06586 -0.01558,0.02098 -0.02064,0.02453 -0.06494,0.04572 -0.108569,0.05194 -0.161301,0.105426 -0.197951,0.200805 -0.0145,0.03776 -0.01744,0.04026 -0.06408,0.05468 -0.02032,0.0063 -0.03727,0.0073 -0.124476,0.0073 -0.05552,1.6e-5 -0.100952,-7.93e-4 -0.100952,-0.0021 z"
         id="path3301-1" />
      <path
         style="fill:none;fill-opacity:1;stroke:#000000;stroke-width:0.264583;stroke-opacity:1"
         d="m 44.787229,46.104503 c 0.690002,2.132724 0.125455,4.139996 -1.06636,3.010905 -1.191819,-1.129088 -1.81909,-2.320907 -1.81909,-2.320907"
         id="path5788" />
      <path
         style="fill:none;fill-opacity:1;stroke:#000000;stroke-width:0.264583;stroke-opacity:1"
         d="m 36.370967,60.943547 0.177419,15.879032 9.491937,1.241936"
         id="path7968" />
      <path
         style="fill:none;fill-opacity:1;stroke:#000000;stroke-width:0.264583;stroke-opacity:1"
         d="m 44.354838,60.677418 0.177419,15.879032 9.491937,1.241936"
         id="path7970" />
      <path
         style="fill:none;fill-opacity:1;stroke:#000000;stroke-width:0.264583;stroke-opacity:1"
         d="m 38.41129,51.584677 c 0,0 -0.266129,1.862902 1.241935,2.040324 1.508065,0.177419 4.65726,0.08871 4.65726,0.08871 0,0 -4.790324,1.596774 -5.633067,0.487902 -0.84274,-1.108871 -0.266128,-2.616935 -0.266128,-2.616936 z"
         id="path9473" />
    </g>
    <rect
       style="fill:#ffffff;fill-opacity:1;stroke:#fefbfb;stroke-width:0.265;stroke-dasharray:none;stroke-opacity:1"
       id="rect10993"
       width="23.064516"
       height="23.064516"
       x="219.64195"
       y="19.791939"
       inkscape:export-filename="..\textures\rect.png"
       inkscape:export-xdpi="278.71994"
       inkscape:export-ydpi="278.71994" />
    <circle
       style="fill:#ffffff;fill-opacity:1;stroke:#fefbfb;stroke-width:0.264999;stroke-dasharray:none;stroke-opacity:1"
       id="path11671"
       cx="138.49739"
       cy="75.849258"
       r="9.0483866"
       inkscape:export-filename="..\textures\circle.png"
       inkscape:export-xdpi="354.12698"
       inkscape:export-ydpi="354.12698" />
    <g
       id="g13882"
       inkscape:label="enemy"
       inkscape:export-filename="..\textures\enemy.png"
       inkscape:export-xdpi="354.12698"
       inkscape:export-ydpi="354.12698">
      <path
         style="fill:#ffffff;fill-opacity:1;stroke:#000000;stroke-width:0.264999;stroke-dasharray:none;stroke-opacity:1"
         d="m 26.438597,131.34632 c 35.81724,6.52364 36.820876,0.4391 36.820876,0.4391"
         id="path13844"
         inkscape:export-filename="..\textures\enemy.png"
         inkscape:export-xdpi="354.12698"
         inkscape:export-ydpi="354.12698" />
      <path
         style="fill:#ffffff;fill-opacity:1;stroke:#000000;stroke-width:0.264999;stroke-dasharray:none;stroke-opacity:1"
         d="m 26.435484,131.37903 c 18.806451,-2.30645 8.959678,-24.39516 14.016127,-34.685482 5.30462,-10.795372 19.25,-4.967742 19.870968,0.08871 0.724549,5.899892 -6.209675,38.854832 3.903226,34.508062 10.112904,-4.34678 -1.056988,0.50643 -1.056988,0.50643"
         id="path11815"
         sodipodi:nodetypes="csssc"
         inkscape:export-filename="..\textures\enemy.png"
         inkscape:export-xdpi="354.12698"
         inkscape:export-ydpi="354.12698" />
      <path
         style="fill:#ffffff;fill-opacity:1;stroke:#000000;stroke-width:0.264999;stroke-dasharray:none;stroke-opacity:1"
         d="m 49.32258,99.532258 c -2.217742,8.383062 -1.020162,11.975802 1.641129,10.778222"
         id="path12844" />
      <g
         id="g10359"
         transform="translate(0.53225806,-0.44354839)">
        <path
           style="fill:#000000;fill-opacity:1;stroke:#000000;stroke-width:0.264999;stroke-dasharray:none;stroke-opacity:1"
           d="m 34.685483,112.35081 c 23.064517,3.37096 29.717743,1.59677 29.717743,1.59677 0,0 -1.508064,4.96774 -4.745969,5.58871 -3.237902,0.62097 -22.532258,3.06048 -24.173386,-1.15323 -1.641128,-4.21371 -0.798388,-6.03225 -0.798388,-6.03225 z"
           id="path12846" />
        <path
           style="fill:#ffffff;fill-opacity:1;stroke:#000000;stroke-width:0.264999;stroke-dasharray:none;stroke-opacity:1"
           d="m 38.172717,112.88023 c 0.05907,11.20941 5.330182,0.77588 5.330182,0.77588"
           id="path12848"
           sodipodi:nodetypes="cc" />
        <path
           style="fill:#ffffff;fill-opacity:1;stroke:#000000;stroke-width:0.264999;stroke-dasharray:none;stroke-opacity:1"
           d="m 58.306148,119.64016 c -0.881838,0.60851 -1.603429,-5.65472 -3.694913,0.5207"
           id="path13039"
           sodipodi:nodetypes="cc" />
        <path
           style="fill:#cd1c1c;fill-opacity:1;stroke:none;stroke-width:0.264999;stroke-dasharray:none;stroke-opacity:1"
           d="m 45.602684,117.51944 c 1.599544,7.05681 4.26545,5.67681 5.206359,3.0109 0.940908,-2.66591 -5.206359,-3.0109 -5.206359,-3.0109 z"
           id="path13106"
           sodipodi:nodetypes="csc" />
      </g>
      <path
         style="fill:none;fill-opacity:1;stroke:#000000;stroke-width:0.264999;stroke-dasharray:none;stroke-opacity:1"
         d="m 41.161288,126.45565 c -2.12903,4.96774 -5.314046,6.46504 -5.314046,6.46504"
         id="path13836"
         sodipodi:nodetypes="cc" />
      <path
         style="fill:none;fill-opacity:1;stroke:#000000;stroke-width:0.264999;stroke-dasharray:none;stroke-opacity:1"
         d="m 54.955643,126.76613 c -2.12903,4.96774 0.943059,6.66398 2.397312,7.39111"
         id="path13840"
         sodipodi:nodetypes="cc" />
      <path
         style="fill:none;fill-opacity:1;stroke:#000000;stroke-width:0.264999;stroke-dasharray:none;stroke-opacity:1"
         d="m 47.553832,126.57795 c -2.12903,4.96774 3.934129,7.76747 3.934129,7.76747"
         id="path13842"
         sodipodi:nodetypes="cc" />
      <path
         style="fill:#ffffff;fill-opacity:1;stroke:none;stroke-width:0.264999;stroke-dasharray:none;stroke-opacity:1"
         d="m 45.064516,121.4879 c -0.04152,0.88835 -0.516601,1.65736 -0.887097,2.43952 -0.252032,0.53206 -0.24175,0.61677 0.04435,1.15322 0.201321,0.37748 0.309372,0.60624 0.709678,0.79839 0.498877,0.23946 0.782603,0.39919 1.286291,0.39919"
         id="path14071" />
      <path
         style="fill:#ffffff;fill-opacity:1;stroke:#000000;stroke-width:0.264999;stroke-dasharray:none;stroke-opacity:1"
         d="m 74.164403,132.58826 c 35.817237,6.52364 36.820877,0.4391 36.820877,0.4391"
         id="path10361"
         inkscape:export-filename="..\textures\enemy.png"
         inkscape:export-xdpi="354.12698"
         inkscape:export-ydpi="354.12698" />
      <path
         style="fill:#ffffff;fill-opacity:1;stroke:#000000;stroke-width:0.264999;stroke-dasharray:none;stroke-opacity:1"
         d="m 74.16129,132.62097 c 18.806451,-2.30645 8.959678,-24.39516 14.016127,-34.685487 5.30462,-10.795372 19.250003,-4.967742 19.870973,0.08871 0.72454,5.899897 -6.20968,38.854837 3.90322,34.508067 10.11291,-4.34678 -1.05699,0.50643 -1.05699,0.50643"
         id="path10363"
         sodipodi:nodetypes="csssc"
         inkscape:export-filename="..\textures\enemy.png"
         inkscape:export-xdpi="354.12698"
         inkscape:export-ydpi="354.12698" />
      <path
         style="fill:#ffffff;fill-opacity:1;stroke:#000000;stroke-width:0.264999;stroke-dasharray:none;stroke-opacity:1"
         d="m 97.048386,100.77419 c -2.217742,8.38307 -1.020162,11.97581 1.641129,10.77823"
         id="path10365" />
      <g
         id="g10375"
         transform="translate(90.217741,0.97580645)">
        <path
           style="fill:#000000;fill-opacity:1;stroke:#000000;stroke-width:0.264999;stroke-dasharray:none;stroke-opacity:1"
           d="m 34.685483,112.35081 c 23.064517,3.37096 29.717743,1.59677 29.717743,1.59677 0,0 -1.508064,4.96774 -4.745969,5.58871 -3.237902,0.62097 -22.532258,3.06048 -24.173386,-1.15323 -1.641128,-4.21371 -0.798388,-6.03225 -0.798388,-6.03225 z"
           id="path10367" />
        <path
           style="fill:#ffffff;fill-opacity:1;stroke:#000000;stroke-width:0.264999;stroke-dasharray:none;stroke-opacity:1"
           d="m 38.172717,112.88023 c 0.05907,11.20941 5.330182,0.77588 5.330182,0.77588"
           id="path10369"
           sodipodi:nodetypes="cc" />
        <path
           style="fill:#ffffff;fill-opacity:1;stroke:#000000;stroke-width:0.264999;stroke-dasharray:none;stroke-opacity:1"
           d="m 58.306148,119.64016 c -0.881838,0.60851 -1.603429,-5.65472 -3.694913,0.5207"
           id="path10371"
           sodipodi:nodetypes="cc" />
        <path
           style="fill:#cd1c1c;fill-opacity:1;stroke:none;stroke-width:0.264999;stroke-dasharray:none;stroke-opacity:1"
           d="m 45.602684,117.51944 c 1.599544,7.05681 4.26545,5.67681 5.206359,3.0109 0.940908,-2.66591 -5.206359,-3.0109 -5.206359,-3.0109 z"
           id="path10373"
           sodipodi:nodetypes="csc" />
      </g>
      <path
         style="fill:none;fill-opacity:1;stroke:#000000;stroke-width:0.264999;stroke-dasharray:none;stroke-opacity:1"
         d="m 88.887094,127.69759 c -2.12903,4.96774 -5.314046,6.46504 -5.314046,6.46504"
         id="path10377"
         sodipodi:nodetypes="cc" />
      <path
         style="fill:none;fill-opacity:1;stroke:#000000;stroke-width:0.264999;stroke-dasharray:none;stroke-opacity:1"
         d="m 102.68145,128.00807 c -2.12903,4.96774 0.94306,6.66398 2.39731,7.39111"
         id="path10379"
         sodipodi:nodetypes="cc" />
      <path
         style="fill:none;fill-opacity:1;stroke:#000000;stroke-width:0.264999;stroke-dasharray:none;stroke-opacity:1"
         d="m 95.279638,127.81989 c -2.12903,4.96774 3.934129,7.76747 3.934129,7.76747"
         id="path10381"
         sodipodi:nodetypes="cc" />
      <path
         style="fill:#ffffff;fill-opacity:1;stroke:none;stroke-width:0.264999;stroke-dasharray:none;stroke-opacity:1"
         d="m 92.790322,122.72984 c -0.04152,0.88835 -0.516601,1.65736 -0.887097,2.43952 -0.252032,0.53206 -0.24175,0.61677 0.04435,1.15322 0.201321,0.37748 0.309372,0.60624 0.709678,0.79839 0.498877,0.23946 0.782603,0.39919 1.286291,0.39919"
         id="path10383" />
      <g
         id="g10443"
         transform="translate(-28.627085,-14.68798)"
         style="fill:#e4c8a4;fill-opacity:1">
        <g
           id="g10449"
           transform="translate(33.119969,9.9736271)">
          <ellipse
             style="fill:#000000;fill-opacity:1;fill-rule:evenodd;stroke:#000000;stroke-width:0.965;stroke-dasharray:none;stroke-opacity:1"
             id="path10439"
             cx="124.28226"
             cy="134.57257"
             rx="7.2741938"
             ry="5.7217741" />
          <ellipse
             style="fill:#ffffff;fill-opacity:1;fill-rule:evenodd;stroke:#000000;stroke-width:0.264999;stroke-dasharray:none;stroke-opacity:1"
             id="path10437"
             cx="123.35081"
             cy="134.57259"
             rx="4.8346772"
             ry="5.0120964" />
        </g>
      </g>
      <g
         id="g10459"
         transform="translate(90.531377,-13.263271)">
        <path
           style="fill:#000000;fill-opacity:1;stroke:#000000;stroke-width:0.264999;stroke-dasharray:none;stroke-opacity:1"
           d="m 34.685483,112.35081 c 23.064517,3.37096 29.717743,1.59677 29.717743,1.59677 0,0 -1.508064,4.96774 -4.745969,5.58871 -3.237902,0.62097 -22.532258,3.06048 -24.173386,-1.15323 -1.641128,-4.21371 -0.798388,-6.03225 -0.798388,-6.03225 z"
           id="path10451" />
        <path
           style="fill:#ffffff;fill-opacity:1;stroke:#000000;stroke-width:0.264999;stroke-dasharray:none;stroke-opacity:1"
           d="m 38.172717,112.88023 c 0.05907,11.20941 5.330182,0.77588 5.330182,0.77588"
           id="path10453"
           sodipodi:nodetypes="cc" />
        <path
           style="fill:#ffffff;fill-opacity:1;stroke:#000000;stroke-width:0.264999;stroke-dasharray:none;stroke-opacity:1"
           d="m 58.306148,119.64016 c -0.881838,0.60851 -1.603429,-5.65472 -3.694913,0.5207"
           id="path10455"
           sodipodi:nodetypes="cc" />
        <ellipse
           style="fill:#46b43a;fill-opacity:1;fill-rule:evenodd;stroke:none;stroke-width:0.964999;stroke-dasharray:none;stroke-opacity:1"
           id="path10461"
           cx="39.753048"
           cy="115.28909"
           rx="0.59590852"
           ry="0.68999934" />
        <ellipse
           style="fill:#46b43a;fill-opacity:1;fill-rule:evenodd;stroke:none;stroke-width:0.964999;stroke-dasharray:none;stroke-opacity:1"
           id="ellipse11355"
           cx="56.28167"
           cy="119.11546"
           rx="0.59590852"
           ry="0.68999934" />
        <ellipse
           style="fill:#102a0d;fill-opacity:1;fill-rule:evenodd;stroke:none;stroke-width:0.964999;stroke-dasharray:none;stroke-opacity:1"
           id="ellipse11357"
           cx="39.784412"
           cy="119.46046"
           rx="0.59590852"
           ry="0.68999934" />
        <ellipse
           style="fill:#102a0d;fill-opacity:1;fill-rule:evenodd;stroke:none;stroke-width:0.964999;stroke-dasharray:none;stroke-opacity:1"
           id="ellipse11359"
           cx="59.810074"
           cy="115.93205"
           rx="0.59590852"
           ry="0.68999934" />
      </g>
      <g
         id="g11381"
         transform="translate(-17.804504,-52.966206)"
         style="fill:#e4c8a4;fill-opacity:1">
        <g
           id="g11379"
           transform="translate(33.119969,9.9736271)">
          <ellipse
             style="fill:#000000;fill-opacity:1;fill-rule:evenodd;stroke:#000000;stroke-width:0.965;stroke-dasharray:none;stroke-opacity:1"
             id="ellipse11375"
             cx="124.28226"
             cy="134.57257"
             rx="7.2741938"
             ry="5.7217741" />
          <ellipse
             style="fill:#ffffff;fill-opacity:1;fill-rule:evenodd;stroke:#000000;stroke-width:0.264999;stroke-dasharray:none;stroke-opacity:1"
             id="ellipse11377"
             cx="123.35081"
             cy="134.57259"
             rx="4.8346772"
             ry="5.0120964" />
        </g>
      </g>
      <ellipse
         style="fill:#102a0d;fill-opacity:1;fill-rule:evenodd;stroke:none;stroke-width:0.964999;stroke-dasharray:none;stroke-opacity:1"
         id="path11435"
         cx="144.90726"
         cy="91.48185"
         rx="1.1975806"
         ry="1.4415323" />
      <ellipse
         style="fill:#102a0d;fill-opacity:1;fill-rule:evenodd;stroke:none;stroke-width:0.964999;stroke-dasharray:none;stroke-opacity:1"
         id="path11437"
         cx="143.95363"
         cy="95.473793"
         rx="0.46572581"
         ry="0.37701613" />
      <ellipse
         style="fill:#102a0d;fill-opacity:1;fill-rule:evenodd;stroke:none;stroke-width:0.964999;stroke-dasharray:none;stroke-opacity:1"
         id="path11439"
         cx="132.93146"
         cy="91.171371"
         rx="0.39919353"
         ry="0.73185486" />
      <ellipse
         style="fill:#102a0d;fill-opacity:1;fill-rule:evenodd;stroke:none;stroke-width:0.964999;stroke-dasharray:none;stroke-opacity:1"
         id="path11441"
         cx="133.8629"
         cy="94.342735"
         rx="0.7096774"
         ry="0.57661289" />
      <ellipse
         style="fill:#56c74a;fill-opacity:1;fill-rule:evenodd;stroke:none;stroke-width:0.964999;stroke-dasharray:none;stroke-opacity:1"
         id="path11443"
         cx="142.07715"
         cy="88.382645"
         rx="1.3172715"
         ry="1.0036354" />
    </g>
    <g
       id="g13322"
       inkscape:label="player"
       transform="translate(51.689913,-5.1651561)">
      <path
         style="fill:#e5e5e5;fill-opacity:1;stroke:#000000;stroke-width:0.264583;stroke-opacity:1"
         d="m 55.529421,23.48154 c 0,0 -22.532258,35.129033 -21.64516,34.951611 0.887097,-0.177419 40.98387,0.177422 40.98387,0.177422 z"
         id="path13300"
         inkscape:export-filename="..\textures\player\playerbody.png"
         inkscape:export-xdpi="314.37109"
         inkscape:export-ydpi="314.37109" />
      <g
         id="g13308"
         transform="translate(-0.68749999,0.1995968)"
         inkscape:label="eye"
         inkscape:export-filename="..\textures\player\eye.png"
         inkscape:export-xdpi="314.37109"
         inkscape:export-ydpi="314.37109">
        <g
           id="g13327">
          <g
             id="g13306"
             transform="translate(-10.534274,0.5766129)">
            <path
               style="fill:#e5e5e5;fill-opacity:1;stroke:#000000;stroke-width:0.264583;stroke-opacity:1"
               d="m 36.00542,42.027234 c 0.292854,-0.115554 0.498515,0.08308 0.752727,0.125455 0.0825,0.01376 0.168113,-0.01183 0.250909,0 0.1972,0.02817 0.169961,0.114326 0.376362,0.06273 0.02869,-0.0072 0.03404,-0.05556 0.06273,-0.06273 0.06085,-0.01521 0.126674,0.0123 0.188182,0 0.164679,-0.03294 0.2462,-0.17653 0.376364,-0.25091 0.251048,-0.143457 0.555932,-0.246602 0.815454,-0.376365 0.151995,-0.076 0.885971,-0.321423 0.940909,-0.376361 0.358817,-0.35882 -0.343641,0.112365 0.250907,-0.125455 0.05491,-0.02196 0.07474,-0.09503 0.125455,-0.125455 0.206819,-0.124092 0.581204,-0.06273 0.815453,-0.06273 0.05128,0 0.394756,-0.04433 0.439092,0 0.01479,0.01479 -0.01159,0.04533 0,0.06273 0.09998,0.149968 0.145283,0.07932 0.18818,0.25091 0.09403,0.376094 0.105243,1.588391 -0.18818,1.881817 -0.03766,0.03765 -0.138763,0.05133 -0.188182,0.125452 -0.02593,0.0389 -0.02967,0.09239 -0.06273,0.125455 -0.159544,0.159543 -0.919562,0.07307 -1.129091,0.125455 -0.435155,0.108788 -0.921928,0.06273 -1.379998,0.06273 -0.316193,0 -1.136756,0.07649 -1.442725,0 -0.133906,-0.03348 -0.261951,-0.130974 -0.376365,-0.188182 -0.03385,-0.01693 -0.276553,-0.08837 -0.313634,-0.125455 -0.01479,-0.01479 0.0093,-0.04402 0,-0.06273 -0.13053,-0.261056 0.0043,0.06706 -0.125455,-0.06273 -0.05389,-0.05389 -0.111041,-0.255974 -0.125455,-0.313637 -0.108651,-0.434605 -0.25091,-0.147135 -0.25091,-0.689999 z"
               id="path13302" />
            <path
               style="fill:#000000;fill-opacity:1;stroke:#000000;stroke-width:0.0148175;stroke-opacity:1"
               d="m 154.10891,163.33219 c 0,-0.004 0.0132,-0.034 0.0294,-0.0657 0.0385,-0.0755 0.14409,-0.17334 0.23299,-0.21596 0.12782,-0.0613 0.0303,-0.0418 -0.45503,0.0907 -0.25058,0.0684 -0.39069,0.0472 -0.73698,-0.11176 -0.10374,-0.0476 -0.22251,-0.0886 -0.3181,-0.10987 l -0.15255,-0.0339 -0.0247,-0.0803 c -0.0136,-0.0441 -0.0443,-0.16391 -0.0683,-0.26618 -0.0356,-0.15155 -0.0691,-0.24063 -0.18096,-0.48157 -0.30243,-0.65112 -0.34127,-0.75051 -0.40357,-1.03281 -0.032,-0.14521 -0.0333,-0.17595 -0.0289,-0.70161 0.005,-0.60219 0.002,-0.63149 -0.0817,-0.91718 -0.0515,-0.17496 -0.0524,-0.18208 -0.052,-0.44452 2.1e-4,-0.14669 0.008,-0.35006 0.0164,-0.45193 0.0362,-0.42028 0.0465,-0.72944 0.0313,-0.94373 -0.0203,-0.28587 -0.0483,-0.41766 -0.1192,-0.56027 l -0.0589,-0.11856 1.2e-4,-0.1852 c 2.6e-4,-0.39603 0.0928,-0.91762 0.25416,-1.43243 l 0.0612,-0.19521 0.0931,-0.0473 c 0.11849,-0.0601 0.30177,-0.20657 0.42456,-0.33919 l 0.0955,-0.1032 0.0876,0.0231 c 0.0859,0.0226 0.29082,0.0215 0.34878,-0.002 0.019,-0.008 0.0262,0.002 0.0339,0.0467 0.005,0.031 0.0134,0.0748 0.0178,0.0972 l 0.008,0.0407 0.20256,2.8e-4 c 0.11141,1.6e-4 0.31925,0.007 0.46187,0.0142 0.90662,0.0486 0.92188,0.0487 1.43729,0.008 0.26487,-0.0207 0.53833,-0.0376 0.6077,-0.0376 l 0.12613,-1e-5 0.0808,0.12224 c 0.0964,0.14594 0.28946,0.35017 0.43977,0.46529 0.10602,0.0812 0.10977,0.0863 0.14488,0.19747 0.0998,0.3159 0.17934,0.95859 0.21736,1.75619 0.0194,0.40757 0.01,1.60938 -0.0156,1.9559 -0.0906,1.23333 -0.26468,2.11048 -0.52635,2.65233 -0.0433,0.0896 -0.10746,0.20166 -0.14259,0.24893 -0.0589,0.0793 -0.078,0.0927 -0.24545,0.1728 -0.41034,0.19629 -0.60964,0.39846 -0.74816,0.75895 -0.0548,0.14273 -0.0659,0.15215 -0.24218,0.20667 -0.0768,0.0238 -0.14087,0.0275 -0.47046,0.0276 -0.20985,6e-5 -0.38155,-0.003 -0.38155,-0.008 z"
               id="path13304"
               transform="scale(0.26458333)" />
          </g>
        </g>
      </g>
      <path
         style="fill:none;fill-opacity:1;stroke:#000000;stroke-width:0.264583;stroke-opacity:1"
         d="m 27.599972,36.381785 c 0.690002,2.132724 0.125455,4.139996 -1.06636,3.010905 -1.191819,-1.129088 -1.81909,-2.320907 -1.81909,-2.320907"
         id="path13314"
         inkscape:label="nose"
         inkscape:export-filename="..\textures\player\nose.png"
         inkscape:export-xdpi="354.12698"
         inkscape:export-ydpi="354.12698" />
      <path
         style="fill:none;fill-opacity:1;stroke:#000000;stroke-width:0.264583;stroke-opacity:1"
         d="m 34.300969,60.441729 0.177419,15.879032 9.491937,1.241936"
         id="path13316"
         inkscape:label="leg"
         inkscape:export-filename="..\textures\player\leg.png"
         inkscape:export-xdpi="354.12698"
         inkscape:export-ydpi="354.12698" />
      <path
         style="fill:none;fill-opacity:1;stroke:#000000;stroke-width:0.264583;stroke-opacity:1"
         d="m 46.362109,60.8656 0.177419,15.879032 9.491937,1.241936"
         id="path13318"
         inkscape:export-filename="..\textures\player\leg.png"
         inkscape:export-xdpi="354.12698"
         inkscape:export-ydpi="354.12698" />
      <path
         style="fill:none;fill-opacity:1;stroke:#000000;stroke-width:0.264583;stroke-opacity:1"
         d="m 22.478578,44.496502 c 0,0 -0.266129,1.862902 1.241935,2.040324 1.508065,0.177419 4.65726,0.08871 4.65726,0.08871 0,0 -4.790324,1.596774 -5.633067,0.487902 -0.84274,-1.108871 -0.266128,-2.616935 -0.266128,-2.616936 z"
         id="path13320"
         inkscape:label="mouth"
         inkscape:export-filename="..\textures\player\mouth.png"
         inkscape:export-xdpi="354.12698"
         inkscape:export-ydpi="354.12698" />
    </g>
    <g
       id="g1260"
       inkscape:export-filename="..\textures\player\large_fist.png"
       inkscape:export-xdpi="724.4032"
       inkscape:export-ydpi="724.4032"
       transform="translate(1.8818164,-41.65087)">
      <path
         style="fill:none;fill-rule:evenodd;stroke:#000000;stroke-width:0.564999"
         d="m 129.97079,50.307226 c 0.62727,0.376362 13.67453,-4.767268 13.67453,-4.767268 0,0 0.62727,-1.38 2.63454,-2.885453 2.00727,-1.505452 -0.75272,-10.287262 -0.75272,-10.287262 0,0 -1.75637,-11.03999 3.63817,-4.76727 5.39455,6.272723 0.50182,14.552716 3.88909,12.670898 3.38727,-1.881817 14.31441,2.815655 9.68413,11.156528 -4.90916,8.843211 -11.44049,7.912546 -11.44049,7.912546 0,0 -8.5309,-4.265451 -6.77454,-6.77454 1.75636,-2.509089 -14.55271,0.752727 -14.55271,0.752727"
         id="path488"
         sodipodi:nodetypes="ccscssscsc" />
      <path
         style="fill:none;fill-rule:evenodd;stroke:#000000;stroke-width:0.564999"
         d="m 157.93375,45.656495 2.69727,1.442725"
         id="path1109" />
      <path
         style="fill:none;fill-rule:evenodd;stroke:#000000;stroke-width:0.564999"
         d="m 155.92648,48.416493 c 0.25091,0 3.45,0.878181 3.45,0.878181"
         id="path1111" />
      <path
         style="fill:none;fill-rule:evenodd;stroke:#000000;stroke-width:0.564999"
         d="m 154.79739,50.29831 2.94818,0.815454"
         id="path1113" />
      <path
         style="fill:none;fill-rule:evenodd;stroke:#000000;stroke-width:0.564999"
         d="m 156.66129,42.846773 c 0.35484,0.08871 6.12097,1.330645 5.41129,3.459678 -0.70968,2.129033 -6.29839,10.82258 -7.00807,9.314516 -0.70967,-1.508064 -2.75,-3.548388 -2.75,-3.548388"
         id="path1211" />
    </g>
    <g
       id="g1267"
       inkscape:export-filename="..\textures\player\large_fist_closed.png"
       inkscape:export-xdpi="724.4032"
       inkscape:export-ydpi="724.4032"
       transform="translate(1.8818164,-41.65087)">
      <path
         style="fill:none;fill-rule:evenodd;stroke:#000000;stroke-width:0.564999"
         d="m 167.94481,50.901225 c 0.62727,0.376362 15.00518,-5.920494 15.00518,-5.920494 1.60234,-1.784912 3.65945,-7.581193 5.36148,-7.713479 7.22906,-0.561858 13.82716,7.679286 13.02205,12.358985 -2.86884,9.863372 -9.71065,8.356094 -9.71065,8.356094 0,0 -7.45706,-1.502609 -10.51427,-1.686566 -6.31622,-0.380057 -13.96218,0.01153 -13.96218,0.01153"
         id="path488-2"
         sodipodi:nodetypes="ccsccsc" />
      <path
         style="fill:none;fill-rule:evenodd;stroke:#000000;stroke-width:0.564999"
         d="m 195.90777,46.250494 3.88909,-0.06273"
         id="path1109-3"
         sodipodi:nodetypes="cc" />
      <path
         style="fill:none;fill-rule:evenodd;stroke:#000000;stroke-width:0.564999"
         d="m 193.9005,49.010492 c 0.25091,0 5.58273,-0.439091 5.58273,-0.439091"
         id="path1111-0"
         sodipodi:nodetypes="cc" />
      <path
         style="fill:none;fill-rule:evenodd;stroke:#000000;stroke-width:0.564999"
         d="m 192.77141,50.892309 4.20272,-0.376363"
         id="path1113-7"
         sodipodi:nodetypes="cc" />
      <path
         style="fill:none;fill-rule:evenodd;stroke:#000000;stroke-width:0.564999"
         d="m 193.19258,39.990775 c 0.35484,0.08871 7.5637,4.780642 6.85402,6.909675 -0.70968,2.129033 -6.29839,10.82258 -7.00807,9.314516 -0.70967,-1.508064 -2.75,-3.548388 -2.75,-3.548388"
         id="path1211-7"
         sodipodi:nodetypes="cssc" />
    </g>
    <path
       style="fill:url(#linearGradient2089);fill-rule:evenodd;stroke:#000000;stroke-width:0.564999;fill-opacity:1"
       d="m 135.74169,34.060878 c 0,0 -2.61091,10.481935 -0.58812,11.970328 0.16158,0.118894 1.9844,0.322542 2.26519,-0.112469 0.53076,-0.822269 0.60907,-2.817444 1.46822,-3.141659 0.73683,-0.278059 1.00855,-0.181865 2.52797,-0.116105 1.40214,0.06069 2.74986,3.415548 3.23418,3.440196 7.98585,0.406415 14.86698,-1.161187 14.70936,-2.12939 -0.22042,-1.354004 -1.51529,-7.399255 -3.21156,-6.203254 -1.66548,1.174286 -2.34627,1.957477 -4.91161,2.094621 -4.15208,0.221971 -6.36329,1.305532 -8.90727,-1.505454 -0.82839,-0.91533 1.56815,-4.422268 1.56815,-4.422268 z"
       id="path1632"
       sodipodi:nodetypes="cssssssssscc"
       inkscape:export-filename="..\textures\player\heavy_boots.png"
       inkscape:export-xdpi="724.4032"
       inkscape:export-ydpi="724.4032" />
  </g>
  <g
     id="g15122"
     inkscape:label="hand"
     transform="translate(2.6834677,0.02217742)">
    <g
       id="g15054"
       inkscape:label="za hando"
       transform="translate(-0.71429376,-0.33108519)">
      <path
         style="fill:none;fill-opacity:1;stroke:#000000;stroke-width:0.264999;stroke-dasharray:none;stroke-opacity:1"
         d="m 69.402262,49.372916 c 0,0 0.372855,0.281655 0.500963,-0.582594 0.108387,-0.731201 0.458767,-1.386145 0.458767,-1.386145 0,0 -0.384512,-1.634442 0.624505,-0.664941 1.153188,1.108026 -0.249987,2.332434 1.080658,2.243725 1.330645,-0.08871 4.217621,-0.508667 4.040202,0.1123 -0.177419,0.620969 -0.565881,0.450904 -1.458107,0.469396 -0.932664,0.01933 -0.953061,0.167121 -0.953061,0.167121 0,0 -0.06958,0.06794 -0.194245,1.155293 -0.172961,1.508582 -2.423316,0.95265 -2.423316,0.95265 -1.892512,-0.596739 -1.805477,-0.293972 -2.234228,-0.920454 -0.227294,-0.332117 -1.123286,-1.616416 0.605465,-1.51126"
         id="path14983"
         sodipodi:nodetypes="cscsssscscsc" />
      <path
         style="fill:none;fill-opacity:1;stroke:#000000;stroke-width:0.264999;stroke-dasharray:none;stroke-opacity:1"
         d="m 72.108851,50.409157 c 0.576309,-0.541019 1.419206,0.07449 1.419206,0.07449"
         id="path14985"
         sodipodi:nodetypes="cc" />
      <path
         style="fill:none;fill-opacity:1;stroke:#000000;stroke-width:0.264999;stroke-dasharray:none;stroke-opacity:1"
         d="m 71.949852,51.417385 c 0.576309,-0.541019 1.419206,0.07449 1.419206,0.07449"
         id="path14989"
         sodipodi:nodetypes="cc" />
      <path
         style="fill:none;fill-opacity:1;stroke:#000000;stroke-width:0.264999;stroke-dasharray:none;stroke-opacity:1"
         d="m 72.077372,50.907305 c 0.576309,-0.541019 1.419206,0.07449 1.419206,0.07449"
         id="path14991"
         sodipodi:nodetypes="cc" />
    </g>
    <path
       style="fill:#ffffff;fill-opacity:1;stroke:#000000;stroke-width:0.264999;stroke-dasharray:none;stroke-opacity:1"
       d="m 65.520286,41.128337 -9.602639,0.06384"
       id="path15056"
       sodipodi:nodetypes="cc" />
    <g
       id="g15555">
      <path
         style="fill:none;fill-opacity:1;stroke:#000000;stroke-width:0.264999;stroke-dasharray:none;stroke-opacity:1"
         d="m 54.445563,22.59879 c 0.817683,-0.327975 4.258064,-3.016129 4.258064,0.377016 0,3.393145 0.288309,4.723791 -1.397177,4.502017 -1.685483,-0.221774 -3.038304,-1.641129 -3.038304,-1.641129 l -0.148749,-2.470881 z"
         id="path15362"
         sodipodi:nodetypes="cssccc" />
      <path
         style="fill:none;fill-opacity:1;stroke:#000000;stroke-width:0.264999;stroke-dasharray:none;stroke-opacity:1"
         d="m 56.441532,21.578629 c 0,0 0.578908,-0.582956 1.222449,-0.321517 0.709677,0.288308 1.01209,1.234596 1.01209,1.234596"
         id="path15429"
         sodipodi:nodetypes="csc" />
      <path
         style="fill:none;fill-opacity:1;stroke:#000000;stroke-width:0.264999;stroke-dasharray:none;stroke-opacity:1"
         d="m 56.115367,22.995485 c 0.894978,-0.457467 2.367601,-0.332013 2.367601,-0.332013 m -2.273246,0.28957 c 0.894978,-0.457467 2.367601,-0.332013 2.367601,-0.332013"
         id="path15431"
         sodipodi:nodetypes="cc" />
      <path
         style="fill:none;fill-opacity:1;stroke:#000000;stroke-width:0.264999;stroke-dasharray:none;stroke-opacity:1"
         d="m 56.265482,23.891052 c 0.894978,-0.457467 2.367601,-0.332013 2.367601,-0.332013 m -2.273246,0.28957 c 0.894978,-0.457467 2.367601,-0.332013 2.367601,-0.332013"
         id="path15431-5"
         sodipodi:nodetypes="cc" />
      <path
         style="fill:none;fill-opacity:1;stroke:#000000;stroke-width:0.264999;stroke-dasharray:none;stroke-opacity:1"
         d="m 56.552419,24.705645 c 0.465646,-0.670711 1.201703,-0.611314 2.084676,-0.155242"
         id="path15433"
         sodipodi:nodetypes="cc" />
      <path
         style="fill:none;fill-opacity:1;stroke:#000000;stroke-width:0.264999;stroke-dasharray:none;stroke-opacity:1"
         d="m 56.552419,25.747984 c 0.281578,-0.532215 2.162796,-0.142128 2.062499,0.266129"
         id="path15435"
         sodipodi:nodetypes="cc" />
    </g>
  </g>
  <g
     id="g715"
     inkscape:label="deadpuddle">
    <ellipse
       style="fill:none;stroke:#000000;stroke-width:0.264999"
       id="path693"
       cx="44.832397"
       cy="148.76677"
       rx="22.550434"
       ry="4.3281779"
       transform="translate(2.6834677,0.02217742)" />
    <path
       style="fill:none;stroke:#000000;stroke-width:0.264999"
       d="m 35.831041,150.77404 c 0.878181,0 7.680009,-7.27635 13.730414,-0.0163"
       id="path697"
       sodipodi:nodetypes="cc"
       transform="translate(2.6834677,0.02217742)" />
    <ellipse
       style="fill:none;stroke:#000000;stroke-width:0.264999"
       id="path699"
       cx="35.805443"
       cy="146.81451"
       rx="0.52116936"
       ry="0.42137095"
       transform="translate(2.6834677,0.02217742)" />
    <ellipse
       style="fill:none;stroke:#000000;stroke-width:0.264999"
       id="path701"
       cx="51.429436"
       cy="146.58165"
       rx="0.53225803"
       ry="0.38810483"
       transform="translate(2.6834677,0.02217742)" />
    <path
       style="fill:none;stroke:#000000;stroke-width:0.264999"
       d="m 36.836693,151.02822 c 6.542339,-2.41734 12.108871,-0.24395 12.108871,-0.24395"
       id="path703"
       transform="translate(2.6834677,0.02217742)" />
  </g>
  <g
     id="g729"
     inkscape:label="butterknife">
    <path
       style="fill:none;stroke:#000000;stroke-width:0.264999"
       d="m 21.024193,18.673387 c 0.964717,-0.03327 1.707662,0.01109 2.528226,0.133064 2.219481,0.329923 0.199597,-5.32258 0.199597,-5.32258 l -0.09212,-1.465665 0.513492,-4.3448192 c 0,0 -2.572582,-1.5967741 -2.905244,0.08871 -0.332661,1.6854839 0.975807,5.5443553 0.620968,5.6774193 -0.354838,0.133065 0.02218,-10e-7 0.04436,1.397177 0.02218,1.397177 -0.909275,3.836694 -0.909275,3.836694 z"
       id="path577"
       sodipodi:nodetypes="cscccsssc"
       transform="translate(2.6834677,0.02217742)" />
    <path
       style="fill:none;stroke:#000000;stroke-width:0.264999"
       d="m 21.5606,9.4025864 c 0.159413,0.014552 0.346261,0.235227 0.501818,0.235227"
       id="path579"
       transform="translate(2.6834677,0.02217742)" />
    <path
       style="fill:none;stroke:#000000;stroke-width:0.264999"
       d="m 21.858555,10.704176 c 0.105771,0.0082 0.17722,0.08077 0.26659,0.125455 0.02215,0.01108 0.124214,0.03012 0.156818,0.06273"
       id="path581"
       transform="translate(2.6834677,0.02217742)" />
    <path
       style="fill:none;stroke:#000000;stroke-width:0.264999"
       d="m 22.046736,11.833266 c 0.08042,0.08161 0.429005,0.345 0.533182,0.345"
       id="path583"
       transform="translate(2.6834677,0.02217742)" />
    <path
       style="fill:none;stroke:#000000;stroke-width:0.264999"
       d="m 21.780146,8.1794057 c 0.173596,0.096189 0.240888,0.2982799 0.407727,0.4234088"
       id="path585"
       transform="translate(2.6834677,0.02217742)" />
    <path
       style="fill:none;stroke:#000000;stroke-width:0.264999"
       d="m 21.900201,13.494959 1.752016,0.03327"
       id="path587"
       transform="translate(2.6834677,0.02217742)" />
  </g>
  <path
     style="fill:#b17934;fill-opacity:1;fill-rule:evenodd;stroke:#000000;stroke-width:0.167904;stroke-dasharray:none;stroke-opacity:1"
     d="m 49.911268,58.096744 c -0.183255,-0.420062 -0.706103,-1.584664 -1.161886,-2.588003 -2.549561,-5.612488 -3.549321,-14.753889 -4.22157,-38.600295 -0.08059,-2.858611 0.04139,-3.59902 0.879906,-5.341263 2.530814,-5.2584302 6.825512,-7.1170853 11.010433,-4.7650839 1.103283,0.6200652 2.588206,1.9235803 3.876799,3.4031849 0.991424,1.138386 1.041445,1.239397 1.212324,2.448121 0.754936,5.340116 1.225828,21.111756 0.876016,29.340499 -0.256699,6.03843 -0.403906,7.497166 -1.220126,12.090801 l -0.703676,3.960246 -2.610999,0.207941 c -1.436049,0.114368 -3.734431,0.297865 -5.107515,0.407772 l -2.496517,0.199829 z"
     id="path6422"
     transform="scale(0.26458333)" />
  <path
     style="fill:#e4c8a4;fill-opacity:1;fill-rule:evenodd;stroke:#000000;stroke-width:0.118726;stroke-dasharray:none;stroke-opacity:1"
     d="m 52.585604,66.31559 c -1.093114,-3.463072 -1.970028,-6.309621 -1.948699,-6.325665 0.06476,-0.04871 9.505401,-0.776179 9.545994,-0.735586 0.02078,0.02078 -0.311865,1.473019 -0.739213,3.227196 -0.583091,2.393471 -0.90213,4.047305 -1.278419,6.627062 l -0.501422,3.437649 -1.545381,0.03292 -1.545381,0.03292 z"
     id="path9184"
     transform="scale(0.26458333)" />
  <g
     id="g735"
     inkscape:label="bat"
     transform="translate(-0.09409082,0.03136361)"
     style="fill:none">
    <path
       style="fill:none;stroke:#000000;stroke-width:0.265;stroke-dasharray:none;stroke-opacity:1"
       d="m 11.733682,19.287234 0.442825,0.03062 0.621617,-0.03085 0.27216,-1.893669 0.467034,-1.923926 c 0,0 0.193973,-1.124899 0.2707,-1.486667 C 14.365417,11.354595 14.012975,3.2101518 13.751062,2.8632744 11.10967,-0.63498816 9.0076626,2.6988366 9.0264143,3.8295123 9.18169,13.192213 9.9452612,14.205183 10.21562,14.801664 c 0.316788,0.698915 0.391049,0.922035 0.391049,0.922035 z"
       id="path358"
       sodipodi:nodetypes="cccccsssscc"
       transform="translate(2.6834677,0.02217742)" />
    <path
       style="fill:none;stroke:#000000;stroke-width:0.264999"
       d="m 10.673413,15.676745 2.886559,-0.230499"
       id="path456"
       sodipodi:nodetypes="cc"
       transform="translate(2.6834677,0.02217742)" />
  </g>
  <path
     style="fill:#d8c1a9;fill-opacity:1;stroke:#000000;stroke-width:0.0419761;stroke-dasharray:none;stroke-opacity:1"
     d="m 98.844932,70.594012 c -2.240473,-0.330514 -5.156245,-0.523152 -7.449556,-0.492172 -0.558998,0.0076 -1.016341,0.0099 -1.01632,0.0052 2.2e-5,-0.0047 0.253694,-0.768479 0.563717,-1.697358 1.652699,-4.951761 2.51227,-8.791189 2.606523,-11.642516 0.05552,-1.679626 -0.176206,-3.779295 -0.546948,-4.955867 l -0.06273,-0.199073 0.238978,3.92e-4 c 0.131438,2.16e-4 1.612749,0.02854 3.291801,0.06295 1.679053,0.03441 3.066816,0.05391 3.083919,0.04334 0.054,-0.03337 0.857864,2.524506 1.296744,4.126236 1.42274,5.192359 1.97872,9.288291 1.60143,11.797688 -0.25959,1.726558 -0.92378,2.725695 -1.97696,2.973949 -0.35194,0.08296 -0.972475,0.07428 -1.6306,-0.02281 z"
     id="path3874"
     transform="scale(0.26458333)" />
  <path
     style="fill:#f4e9e6;fill-opacity:1;stroke:#000000;stroke-width:0.0839522;stroke-dasharray:none;stroke-opacity:1"
     d="m 95.471171,50.587896 -1.844044,-0.04434 -0.01631,-0.717833 c -0.02049,-0.902109 -0.181626,-1.842745 -1.075325,-6.277403 -1.27102,-6.306981 -1.540698,-8.151461 -1.605981,-10.98419 -0.05134,-2.227619 0.03989,-3.045275 0.438988,-3.934584 0.96909,-2.15942 3.853778,-2.107985 8.398453,0.149749 1.002968,0.49826 1.110618,0.573077 1.110618,0.771876 0,0.121076 -0.41787,3.743461 -0.928593,8.049746 l -0.928593,7.829609 0.134536,2.263144 c 0.07399,1.24473 0.154701,2.423451 0.179348,2.61938 l 0.04481,0.356236 -1.031934,-0.01853 c -0.567563,-0.01019 -1.861752,-0.03848 -2.875976,-0.06287 z m 0.04191,-4.47489 V 45.580089 L 95.016986,45.273882 C 94.744134,45.105468 94.360451,44.833631 94.164359,44.6698 l -0.356533,-0.297874 -0.379016,0.379015 c -0.376686,0.376687 -0.378033,0.380101 -0.219156,0.555657 0.396333,0.437945 1.842144,1.339325 2.148271,1.339325 0.134725,0 0.155156,-0.07017 0.155156,-0.532917 z m -0.85133,-5.308402 c -0.04626,-0.05574 -0.211394,-0.143348 -0.366972,-0.194693 -0.155579,-0.05134 -0.482603,-0.203468 -0.726722,-0.33805 -0.582509,-0.321136 -0.820728,-0.326128 -0.821964,-0.01723 -5.12e-4,0.126778 -0.02273,0.362523 -0.04939,0.523876 -0.05334,0.322835 -0.124391,0.265634 0.873763,0.703416 l 0.446256,0.195723 0.364568,-0.385854 c 0.260733,-0.275958 0.340614,-0.414718 0.280465,-0.487192 z m -1.076534,-4.247058 v -0.532879 l -0.660372,-0.389951 c -0.709271,-0.418827 -1.159911,-0.607677 -1.245595,-0.521993 -0.02935,0.02935 -0.06718,0.269456 -0.08407,0.533568 l -0.03071,0.480201 0.662587,0.396857 c 0.364423,0.218272 0.809663,0.431367 0.989421,0.473546 0.179759,0.04218 0.336264,0.08048 0.347789,0.08511 0.01153,0.0046 0.02096,-0.231375 0.02096,-0.524458 z m 0.493652,-3.970692 0.272021,-0.354471 -0.598038,-0.716006 c -0.626821,-0.750467 -0.93867,-1.015331 -1.087294,-0.923476 -0.04886,0.03019 -0.178773,0.231471 -0.288704,0.44728 l -0.199874,0.392382 0.420889,0.461011 c 0.934357,1.023425 1.096873,1.180859 1.151735,1.11572 0.03148,-0.03738 0.179653,-0.22748 0.329265,-0.42244 z"
     id="path5256"
     transform="scale(0.26458333)" />
  <ellipse
     style="fill:#56c74a;fill-opacity:1;fill-rule:evenodd;stroke:none;stroke-width:0.964999;stroke-dasharray:none;stroke-opacity:1"
     id="path11877"
     cx="106.51081"
     cy="152.30167"
     rx="24.714521"
     ry="5.1436315"
     inkscape:export-filename="..\textures\spit.png"
     inkscape:export-xdpi="354.12698"
     inkscape:export-ydpi="354.12698" />
  <ellipse
     style="fill:#008000;fill-opacity:1;fill-rule:evenodd;stroke:none;stroke-width:0.964999;stroke-dasharray:none;stroke-opacity:1"
     id="path11879"
     cx="92.209007"
     cy="153.55623"
     rx="2.1013618"
     ry="1.4427259" />
  <ellipse
     style="fill:#008000;fill-opacity:1;fill-rule:evenodd;stroke:none;stroke-width:0.964999;stroke-dasharray:none;stroke-opacity:1"
     id="ellipse11933"
     cx="112.78353"
     cy="154.62259"
     rx="2.1013618"
     ry="1.4427259" />
  <ellipse
     style="fill:#008000;fill-opacity:1;fill-rule:evenodd;stroke:none;stroke-width:0.964999;stroke-dasharray:none;stroke-opacity:1"
     id="ellipse11935"
     cx="119.6208"
     cy="150.01215"
     rx="2.1013618"
     ry="1.4427259" />
  <ellipse
     style="fill:#008000;fill-opacity:1;fill-rule:evenodd;stroke:none;stroke-width:0.964999;stroke-dasharray:none;stroke-opacity:1"
     id="ellipse11937"
     cx="102.49627"
     cy="149.63579"
     rx="2.1013618"
     ry="1.4427259" />
  <g
     id="g13277">
    <path
       style="fill:none;fill-opacity:1;fill-rule:evenodd;stroke:#226400;stroke-width:0.964999;stroke-dasharray:none;stroke-opacity:1"
       d="m 94.780821,146.90713 c 0.376362,-5.89635 3.32454,-1.2859 3.387268,-6.30408"
       id="path12638"
       sodipodi:nodetypes="cc" />
    <path
       style="fill:none;fill-opacity:1;fill-rule:evenodd;stroke:#226400;stroke-width:0.964999;stroke-dasharray:none;stroke-opacity:1"
       d="m 97.540818,146.90713 c 0.376362,-5.89635 3.324542,-1.2859 3.387272,-6.30408"
       id="path13270"
       sodipodi:nodetypes="cc" />
    <path
       style="fill:none;fill-opacity:1;fill-rule:evenodd;stroke:#226400;stroke-width:0.964999;stroke-dasharray:none;stroke-opacity:1"
       d="m 101.05354,146.90713 c 0.37636,-5.89635 3.32454,-1.2859 3.38727,-6.30408"
       id="path13272"
       sodipodi:nodetypes="cc" />
  </g>
</svg>
